# xmcd CD database file
#
# Track frame offsets:
#	150
#	12150
#	23272
#	41632
#	54160
#	69172
#	89735
#	109172
#	126800
#	148992
#
# Disc length: 2201 seconds
#
# Revision: 0
# Processed by: cddbd v1.5.1PL2 Copyright (c) Steve Scherf et al.
# Submitted via: CDex 1.51
#
DISCID=7e08970a
DTITLE=Soul Bossa Trio - Sunsine,Clouds&Rain
DYEAR=2005
DGENRE=Club
TTITLE0=Don't get around much anymore
TTITLE1=Norwegian wood (This bird has flown)
TTITLE2=Tinsagu nu hana
TTITLE3=Home again
TTITLE4=My cherie amour
TTITLE5=What's going on?
TTITLE6=Ayagu
TTITLE7=Honey child
TTITLE8=Tenderly
TTITLE9=Don't let me down
EXTD=YEAR: 2005
EXTT0=
EXTT1=
EXTT2=
EXTT3=
EXTT4=
EXTT5=
EXTT6=
EXTT7=
EXTT8=
EXTT9=
PLAYORDER=
